# xmcd
#
# Track frame offsets:
#	150
#	21052
#	40729
#	60468
#	78795
#	104103
#	126917
#	146159
#	169111
#	186882
#	206809
#
# Disc length: 3192 seconds
#
# Revision: 11
# Processed by: cddbd v1.5.2PL0 Copyright (c) Steve Scherf et al.
# Submitted via: audiograbber 1.83.01
#
DISCID=9a0c760b
DTITLE=Lucio Dalla - Ciao
DYEAR=1999
DGENRE=Italo Pop
TTITLE0=Ciao
TTITLE1=Non Vergognarsi Mai
TTITLE2=Io Tra Un'ora Sono Li
TTITLE3=La
TTITLE4=What A Beautiful Day
TTITLE5=Trapiantoperso
TTITLE6=Hotel
TTITLE7=Trash
TTITLE8=Scusa
TTITLE9=1999
TTITLE10=Born To Be Alone
EXTD=\n\n
EXTT0=
EXTT1=
EXTT2=
EXTT3=
EXTT4=
EXTT5=
EXTT6=
EXTT7=
EXTT8=
EXTT9=
EXTT10=
PLAYORDER=
